<?xml version="1.0" encoding="UTF-8" standalone="no"?>
<svg
   xmlns:svg="http://www.w3.org/2000/svg"
   xmlns="http://www.w3.org/2000/svg"
   version="1.1"
   width="26"
   height="44"
   viewBox="158 0 26 44"
   id="svg_fh_swf_graphic">
  <path
     d="m 167.32993,0 c 0.54329,0 1.0545,0.1608 1.46884,0.46 0.41565,0.3221 0.64802,0.691 0.63559,1.1276 l -1.02767,27.70315 c -0.0112,0.4605 -0.23302,0.8055 -0.66373,1.1047 -0.46147,0.2992 -0.95894,0.46 -1.442,0.46 l -4.72268,0 c -0.48307,0 -0.98054,-0.1608 -1.44201,-0.46 -0.4307,-0.2992 -0.65063,-0.6442 -0.66373,-1.1047 L 158.44488,1.5876 C 158.43358,1.151 158.66612,0.7821 159.07981,0.46 159.49677,0.1608 160.00602,0 160.55062,0 l 6.77931,0 z m -8.88264,36.645 c -0.0112,-0.4376 0.21078,-0.8055 0.62773,-1.1047 0.4451,-0.3221 0.92425,-0.4829 1.46884,-0.4829 l 6.79372,0 c 0.5446,0 1.02505,0.1608 1.47015,0.4829 0.41434,0.2992 0.63951,0.6671 0.62641,1.1047 l 0,5.24621 c 0.0131,0.4366 -0.21207,0.805 -0.62641,1.10421 -0.4451,0.3221 -0.92555,0.48339 -1.47015,0.48339 l -6.79372,0 c -0.54459,0 -1.02374,-0.1613 -1.46884,-0.48339 -0.41695,-0.29921 -0.63951,-0.66761 -0.62773,-1.10421 l 0,-5.24621 z"
     id="path27861"
     style="fill:#000000;fill-opacity:1;fill-rule:nonzero;stroke:none" />
  <path
     d="m 174.57744,9.97814 c -0.0112,-0.43311 0.21078,-0.79754 0.62773,-1.09425 0.4438,-0.31811 0.92162,-0.47792 1.46622,-0.47792 l 6.78129,0 c 0.54329,0 1.02243,0.15981 1.46621,0.47792 0.41565,0.29671 0.63755,0.66114 0.62643,1.09425 l 0,5.19642 c 0.0112,0.43362 -0.21078,0.79804 -0.62643,1.09425 -0.44378,0.31912 -0.92292,0.47842 -1.46621,0.47842 l -6.78129,0 c -0.5446,0 -1.02242,-0.1593 -1.46622,-0.47842 -0.41695,-0.29621 -0.63951,-0.66063 -0.62773,-1.09425 l 0,-5.19642 z"
     id="path27865"
     style="fill:#00519e;fill-opacity:1;fill-rule:nonzero;stroke:none" />
</svg>
