<svg xmlns="http://www.w3.org/2000/svg" viewBox="0 0 512 512">
  <style>
    :root {
      --color-white: hsl(0, 0%, 100%);
      --color-light-blue: hsl(215, 100%, 97%);
      --color-medium-blue: hsl(215, 90%, 60%);
      --color-dark-blue: hsl(215, 90%, 20%);
      --color-text-blue-dark: hsl(215, 90%, 20%);
      --color-text-blue-medium: hsl(215, 90%, 40%);
      --color-text-blue-light: hsl(215, 90%, 60%);
    }
  </style>
  <circle cx="256" cy="256" r="256" fill="hsl(0, 0%, 100%)"/>
  <!-- Graphic Element: Stylized Calendar -->
  <g transform="translate(156, 70) scale(0.8)">
    <rect x="20" y="40" width="210" height="180" rx="25" 
          fill="hsl(215, 100%, 97%)" 
          stroke="hsl(215, 90%, 60%)" 
          stroke-width="12"/>
    <path d="M70 20 v40 M180 20 v40" stroke="hsl(215, 90%, 20%)" stroke-width="12" stroke-linecap="round"/>
    <rect x="20" y="80" width="210" height="2" fill="hsl(215, 90%, 60%)"/>
    <!-- Checkmark -->
    <path d="M80 140 l30 30 l60 -60" 
          stroke="hsl(215, 90%, 20%)" 
          stroke-width="16" fill="none" 
          stroke-linecap="round" 
          stroke-linejoin="round"/>
  </g>
  
  <!-- Text -->
  
  <g>
                    <path d="M74.77 346.02L98.21 291.13L103.71 291.13L128.13 346.02L120.12 346.02L112.86 329.85L89.65 329.85L82.78 346.02L74.77 346.02ZM92.70 322.89L109.65 322.89L100.86 303.13L92.70 322.89ZM139.96 364.34L132.70 364.34L132.70 310.08L145.16 310.08Q154.73 310.08 160.06 314.85Q165.39 319.61 165.39 328.17L165.39 328.17Q165.39 336.25 160.38 341.45Q155.36 346.64 147.58 346.64L147.58 346.64Q144.14 346.64 139.96 345.12L139.96 345.12L139.96 364.34ZM145.00 316.72L145.00 316.72L139.96 316.72L139.96 338.83Q143.25 340.51 146.84 340.51L146.84 340.51Q151.84 340.51 155.02 337.03Q158.21 333.56 158.21 328.09L158.21 328.09Q158.21 324.57 156.70 321.88Q155.20 319.18 152.60 317.95Q150.00 316.72 145.00 316.72ZM179.96 364.34L172.70 364.34L172.70 310.08L185.16 310.08Q194.73 310.08 200.06 314.85Q205.39 319.61 205.39 328.17L205.39 328.17Q205.39 336.25 200.38 341.45Q195.36 346.64 187.58 346.64L187.58 346.64Q184.14 346.64 179.96 345.12L179.96 345.12L179.96 364.34ZM185.00 316.72L185.00 316.72L179.96 316.72L179.96 338.83Q183.25 340.51 186.84 340.51L186.84 340.51Q191.84 340.51 195.02 337.03Q198.21 333.56 198.21 328.09L198.21 328.09Q198.21 324.57 196.70 321.88Q195.20 319.18 192.60 317.95Q190.00 316.72 185.00 316.72Z" fill="hsl(215, 90%, 20%)" />
                    <path d="M230.36 310.00L230.36 310.00Q238.56 310.00 243.99 315.29Q249.42 320.59 249.42 328.60L249.42 328.60Q249.42 336.37 243.91 341.51Q238.40 346.64 230.04 346.64L230.04 346.64Q221.96 346.64 216.53 341.43Q211.10 336.21 211.10 328.40L211.10 328.40Q211.10 320.51 216.59 315.26Q222.07 310.00 230.36 310.00ZM229.96 316.41L229.96 316.41Q224.85 316.41 221.57 319.77Q218.29 323.13 218.29 328.32L218.29 328.32Q218.29 333.48 221.64 336.74Q225.00 340.00 230.28 340.00L230.28 340.00Q235.51 340.00 238.85 336.70Q242.19 333.40 242.19 328.24L242.19 328.24Q242.19 323.13 238.71 319.77Q235.24 316.41 229.96 316.41ZM260.98 294.96L260.98 294.96Q262.74 294.96 263.99 296.17Q265.24 297.38 265.24 299.14L265.24 299.14Q265.24 300.86 263.99 302.11Q262.74 303.36 260.98 303.36L260.98 303.36Q259.34 303.36 258.09 302.09Q256.84 300.82 256.84 299.14L256.84 299.14Q256.84 297.50 258.09 296.23Q259.34 294.96 260.98 294.96ZM257.46 346.02L257.46 310.08L264.57 310.08L264.57 346.02L257.46 346.02ZM274.69 310.08L281.96 310.08L281.96 314.65Q286.72 309.38 292.78 309.38L292.78 309.38Q296.14 309.38 299.03 311.12Q301.92 312.85 303.42 315.88Q304.93 318.91 304.93 325.47L304.93 325.47L304.93 346.02L297.82 346.02L297.82 325.55Q297.82 320.04 296.14 317.68Q294.46 315.31 290.51 315.31L290.51 315.31Q285.47 315.31 281.96 320.35L281.96 320.35L281.96 346.02L274.69 346.02L274.69 310.08ZM309.81 316.49L309.81 315.78L323.17 302.66L323.17 310.08L334.54 310.08L334.54 316.49L323.17 316.49L323.17 334.10Q323.17 340.28 328.29 340.28L328.29 340.28Q332.11 340.28 336.37 337.70L336.37 337.70L336.37 344.34Q332.27 346.64 327.43 346.64L327.43 346.64Q322.54 346.64 319.30 343.79L319.30 343.79Q318.29 342.93 317.62 341.86Q316.96 340.78 316.51 339.04Q316.06 337.31 316.06 332.42L316.06 332.42L316.06 316.49L309.81 316.49Z" fill="hsl(215, 90%, 40%)" />
                    <path d="M367.82 313.87L385.90 291.45L393.17 291.45L393.17 346.02L385.32 346.02L385.32 303.56L368.52 324.65L367.07 324.65L350.12 303.56L350.12 346.02L342.31 346.02L342.31 291.45L349.65 291.45L367.82 313.87ZM434.57 327.78L434.57 328.67L409.30 328.67Q409.57 333.83 412.76 336.88Q415.94 339.92 420.98 339.92L420.98 339.92Q428.01 339.92 433.95 335.55L433.95 335.55L433.95 342.50Q430.67 344.69 427.45 345.63Q424.22 346.56 419.89 346.56L419.89 346.56Q413.95 346.56 410.28 344.10Q406.61 341.64 404.40 337.48Q402.19 333.32 402.19 327.85L402.19 327.85Q402.19 319.65 406.84 314.51Q411.49 309.38 418.91 309.38L418.91 309.38Q426.06 309.38 430.32 314.38Q434.57 319.38 434.57 327.78L434.57 327.78ZM409.46 324.42L409.46 324.42L427.54 324.42Q427.27 320.16 425.00 317.85Q422.74 315.55 418.91 315.55L418.91 315.55Q415.08 315.55 412.64 317.85Q410.20 320.16 409.46 324.42Z" fill="hsl(215, 90%, 60%)" />
                </g>
</svg>
